PathFileType  4	(X/Y/Z) C:\Users\antoi\Documents\MyRepositories\mobilecap\ResultsAnalysis
DataRate	CameraRate	NumFrames	NumMarkers	Units	OrigDataRate	OrigDataStartFrame	OrigNumFrames
100.0	100.0	4	51	mm	100.0	1109	1774
Frame#	Time	r_knee			r_shank_antsup			r_ankle			r_calc			r_5meta			r_toe			L_knee			L_shank_antsup			L_ankle			L_calc			L_5meta			L_toe			r_sh2			r_sh3			r_sh4			L_sh2			L_sh3			r_thigh1			r_thigh2			r_thigh3			r_thigh4			r_thigh5			L_thigh1			L_thigh2			L_thigh3			L_thigh4			r.ASIS			r.PSIS			L.ASIS			L.PSIS			C7			R_Shoulder			L_Shoulder			R_Sternum			L_Sternum			R_humerus			R_elbow_med			R_elbow_lat			R_forearm			R_wrist_radius			R_wrist_ulna			L_humerus			L_elbow_med			L_elbow_lat			L_forearm			L_wrist_radius			L_wrist_ulna			R_HJC			L_HJC			R_HJC_reg			L_HJC_reg			
		X1	Y1	Z1	X2	Y2	Z2	X3	Y3	Z3	X4	Y4	Z4	X5	Y5	Z5	X6	Y6	Z6	X7	Y7	Z7	X8	Y8	Z8	X9	Y9	Z9	X10	Y10	Z10	X11	Y11	Z11	X12	Y12	Z12	X13	Y13	Z13	X14	Y14	Z14	X15	Y15	Z15	X16	Y16	Z16	X17	Y17	Z17	X18	Y18	Z18	X19	Y19	Z19	X20	Y20	Z20	X21	Y21	Z21	X22	Y22	Z22	X23	Y23	Z23	X24	Y24	Z24	X25	Y25	Z25	X26	Y26	Z26	X27	Y27	Z27	X28	Y28	Z28	X29	Y29	Z29	X30	Y30	Z30	X31	Y31	Z31	X32	Y32	Z32	X33	Y33	Z33	X34	Y34	Z34	X35	Y35	Z35	X36	Y36	Z36	X37	Y37	Z37	X38	Y38	Z38	X39	Y39	Z39	X40	Y40	Z40	X41	Y41	Z41	X42	Y42	Z42	X43	Y43	Z43	X44	Y44	Z44	X45	Y45	Z45	X46	Y46	Z46	X47	Y47	Z47	X48	Y48	Z48	X49	Y49	Z49	X50	Y50	Z50	X51	Y51	Z51	

1109	11.08000000	-229.19095	478.04452	-406.64087	-175.05992	391.19018	-411.93764	-297.36616	87.16901	-430.90614	-360.06462	55.74650	-476.81953	-173.63041	43.87907	-402.45521	-146.11186	78.35368	-457.05481	-244.30998	481.70079	-817.78075	-177.26196	402.68619	-807.19383	-290.03776	91.99909	-780.28546	-360.51995	50.25814	-729.33286	-181.61654	40.62650	-813.77564	-137.39262	72.13931	-760.66138	-200.91106	280.33920	-417.78855	-240.91043	401.47015	-375.97060	-271.61555	291.91136	-376.90650	-257.96430	426.59692	-843.58595	-282.01085	307.38448	-842.74967	-468.36794	603.91087	-398.43563	-362.04561	579.96895	-412.18947	-348.41866	522.11030	-376.39488	-492.84442	495.49928	-377.42518	-377.80180	474.52018	-389.25747	-474.56084	523.03915	-830.40877	-313.00020	592.42925	-784.87451	-450.09039	617.22468	-782.05577	-343.71470	494.00103	-822.20112	-452.60188	612.13636	-462.77122	-606.48578	713.95332	-544.92330	-472.24091	624.88448	-732.30943	-605.64731	717.27406	-634.54166	-153.46258	896.49055	-569.56427	-115.79567	809.05400	-424.47706	-107.30793	801.50025	-713.87023	-145.29859	741.01067	-553.32656	-141.85378	745.55033	-598.91294	-201.51535	719.82651	-355.29514	-414.20742	675.96476	-375.70000	-403.56489	688.80818	-300.28000	-311.52264	646.79136	-303.64316	-172.63785	613.30076	-377.06311	-188.76456	572.94464	-353.77821	-209.34636	737.70337	-808.39915	-416.40500	711.53138	-800.87024	-392.97860	745.01806	-876.98780	-321.85194	712.85399	-886.92360	-181.86742	637.77032	-848.29836	-205.89788	609.08952	-883.83093	-555.19283	561.20374	-494.50107	-563.42648	568.67964	-683.73556	-556.30924	565.12141	-503.74061	-554.63882	571.73291	-682.17752	
1110	11.09000000	-226.73974	477.96209	-406.96152	-173.12976	390.63917	-412.10172	-297.23196	87.27991	-430.92140	-360.01660	55.78487	-476.82522	-173.54130	43.78887	-402.36793	-145.98818	78.10051	-457.13135	-241.24521	481.58420	-816.79672	-174.84282	402.11280	-806.42040	-289.91007	91.96153	-780.01879	-360.49158	50.28319	-729.32158	-181.57452	40.53574	-813.76893	-137.21949	71.91135	-760.58455	-199.59457	279.84750	-418.14781	-238.75629	401.22701	-376.14190	-270.07114	291.84539	-376.89026	-255.30908	426.61534	-842.94632	-280.35468	307.66819	-842.60959	-463.92152	607.85806	-398.38517	-358.09472	582.03402	-412.72528	-345.15931	524.21789	-376.64463	-489.95204	499.81298	-377.47166	-375.38260	477.06951	-389.26912	-470.89731	526.81729	-830.28240	-308.25739	593.45430	-784.18896	-445.02473	620.40915	-781.57815	-340.47369	495.58633	-821.68574	-448.31678	616.71533	-462.52045	-601.13436	719.91101	-544.90292	-467.32969	628.35641	-731.83170	-600.38598	723.04750	-634.23485	-147.55898	900.61571	-568.85346	-111.59866	813.52892	-424.27450	-103.24214	805.80744	-714.18248	-140.42114	745.77080	-553.35593	-137.10776	750.27323	-598.61684	-197.45478	724.01821	-355.94105	-410.14125	680.47325	-376.70076	-399.61436	692.78639	-301.26710	-307.77060	650.33540	-304.96919	-169.06954	616.78860	-378.55226	-185.24020	576.39146	-355.21824	-205.70887	741.58675	-808.34767	-412.67154	714.74711	-799.63005	-389.71358	747.69275	-876.14596	-318.74272	715.25717	-886.12581	-178.48777	640.32398	-847.65654	-202.64622	611.63921	-883.32551	-551.43618	566.76965	-493.83799	-559.50720	573.60250	-683.10488	-552.16306	570.44856	-503.25252	-550.66917	576.70521	-681.49033	
1111	11.10000000	-224.45012	477.84628	-407.23191	-171.31215	390.09920	-412.20716	-297.07802	87.42769	-430.87776	-359.97019	55.82525	-476.80548	-173.36631	43.66608	-402.31089	-145.85878	77.85990	-457.17283	-238.26154	481.64627	-816.16672	-172.51779	401.49859	-805.48100	-289.75448	91.92271	-779.66992	-360.45913	50.31584	-729.30601	-181.54528	40.35252	-813.60265	-137.09995	71.67788	-760.59192	-198.36333	279.44045	-418.30585	-236.67524	401.04812	-376.23432	-268.57341	292.05200	-376.83269	-252.76381	426.55000	-842.08798	-278.61109	307.76051	-842.10035	-459.20558	611.83816	-398.96048	-353.93030	583.75801	-413.74042	-341.95187	526.35354	-376.89382	-486.97578	504.29220	-377.63771	-373.05782	479.90006	-389.25182	-467.18975	530.68034	-830.00868	-303.51691	594.41954	-783.38255	-439.89150	623.77156	-781.22020	-337.33521	497.20858	-820.94482	-444.92958	620.20406	-462.45793	-595.77732	726.17161	-544.96516	-462.34675	631.85956	-731.14641	-594.95442	728.92605	-634.09859	-141.66523	905.56620	-569.61619	-107.64067	818.81514	-424.12944	-99.39277	810.83784	-714.61129	-135.40940	751.48685	-552.93545	-132.38730	755.66100	-598.11362	-193.78353	729.07342	-356.41550	-406.49623	685.76086	-378.01828	-396.03099	697.14515	-302.56029	-304.34789	654.52284	-306.28110	-165.71436	620.97184	-380.10202	-181.89262	580.55069	-356.72188	-202.33765	746.01433	-808.27021	-409.37668	718.74611	-798.29185	-386.74214	750.81966	-875.26608	-315.82566	718.09624	-885.13481	-175.32297	643.60147	-846.73720	-199.33561	614.91680	-882.81084	-548.70668	571.98884	-493.65510	-555.98108	578.83089	-682.95366	-548.97970	576.46279	-502.93413	-547.34059	581.95678	-680.71324	
1112	11.11000000	-222.17454	477.91032	-407.23742	-169.62384	389.47144	-412.40653	-296.97003	87.50106	-430.83683	-359.93433	55.89745	-476.70905	-173.26399	43.44728	-402.31904	-145.76960	77.64318	-457.16468	-235.37270	481.76968	-815.52994	-170.41803	400.81272	-804.52726	-289.56577	91.90599	-779.36995	-360.42863	50.35000	-729.28315	-181.51313	40.20427	-813.44701	-137.03984	71.40679	-760.58032	-197.30992	279.11722	-418.22825	-234.73144	400.88940	-376.23723	-267.44117	292.09227	-376.84473	-250.38964	426.51718	-841.19072	-276.89860	307.88576	-841.26151	-454.92235	616.43300	-398.68338	-350.23837	586.27666	-413.94932	-338.88668	528.62393	-376.87595	-484.11160	509.06403	-377.57595	-370.80215	482.89374	-389.28431	-463.47305	534.40509	-829.39109	-299.04357	595.52395	-782.98091	-434.72325	627.29253	-781.02124	-334.24665	498.89975	-820.19901	-441.91950	623.26083	-462.74696	-590.46850	732.67923	-545.11888	-457.36715	635.65405	-730.62184	-589.35018	735.08085	-634.26701	-137.30113	911.07777	-571.54626	-104.00572	824.97065	-423.98383	-95.61705	816.86876	-715.02984	-130.51968	757.85641	-552.69011	-127.70811	761.54681	-597.99568	-190.46342	734.88710	-356.78402	-403.17253	691.67966	-379.40160	-392.71166	702.10115	-303.94147	-301.23506	659.38734	-307.58397	-162.52097	625.85194	-381.63184	-178.74332	585.41180	-358.33148	-199.24126	750.94557	-808.16288	-406.49170	723.08164	-796.79174	-384.00611	754.31696	-874.28039	-313.08108	721.60277	-884.15750	-172.35608	647.54258	-845.63062	-196.22393	618.86677	-881.88635	-546.42350	577.15499	-493.99760	-552.61817	584.47164	-683.31673	-546.30346	582.77060	-503.17491	-544.08523	587.54563	-680.37615	
